<svg width="69" height="56" viewBox="0 0 69 56" fill="none" xmlns="http://www.w3.org/2000/svg">
<mask id="mask0_0_641" style="mask-type:alpha" maskUnits="userSpaceOnUse" x="0" y="0" width="69" height="56">
<path fill-rule="evenodd" clip-rule="evenodd" d="M0 0H69V56H0V0Z" fill="white"/>
</mask>
<g mask="url(#mask0_0_641)">
<path fill-rule="evenodd" clip-rule="evenodd" d="M81.3216 3.96075C77.6915 7.59743 73.6941 7.34818 70.4821 7.14798C67.6196 6.969 65.3585 6.8278 63.206 8.98422C61.0541 11.14 61.1944 13.4051 61.3731 16.2728C61.5729 19.4905 61.8224 23.4951 58.1922 27.1318C54.5621 30.7685 50.5654 30.5186 47.3534 30.3177C44.4909 30.1387 42.2298 29.9982 40.0786 32.1533C37.9267 34.309 38.0677 36.5735 38.2463 39.4412C38.4468 42.6589 38.6963 46.6629 35.0668 50.2989C31.4374 53.9349 27.44 53.6856 24.228 53.4848C21.3661 53.3058 19.1051 53.1646 16.9539 55.3204C16.0487 56.2265 14.583 56.2265 13.6784 55.3204C12.7739 54.4142 12.7739 52.9452 13.6784 52.039C17.3079 48.403 21.3046 48.6522 24.5165 48.8531C27.3791 49.0321 29.6395 49.1733 31.7914 47.0175C33.9432 44.8624 33.8023 42.598 33.6236 39.7302C33.4231 36.5125 33.1737 32.5086 36.8031 28.8726C40.4333 25.2359 44.43 25.4858 47.6419 25.6867C50.5045 25.8657 52.7649 26.0062 54.9168 23.8504C57.0693 21.694 56.9284 19.4289 56.7504 16.5612C56.5499 13.3435 56.3011 9.33953 59.9305 5.70286C63.5607 2.06684 67.558 2.31609 70.77 2.51629C73.6325 2.69461 75.8936 2.83581 78.0461 0.679391C78.9507 -0.226132 80.417 -0.226795 81.3216 0.679391C82.2261 1.58558 82.2261 3.05457 81.3216 3.96075Z" fill="#FC5C42"/>
</g>
</svg>
